<svg xmlns="http://www.w3.org/2000/svg" width="24" height="24" viewBox="0 0 24 24">
  <path fill="#666" d="M17,6 C18.4573652,6.00466265 19.7005624,7.05602857 19.9471479,8.49238878 C20.1937333,9.92874899 19.3723667,11.3345465 18,11.825 L18,13.5 C18,17.0898509 15.0898509,20 11.5,20 C7.91014913,20 5,17.0898509 5,13.5 L5,12.915 C2.11353386,12.4270982 0.000526836159,9.92741091 4.4408921e-14,7 L4.4408921e-14,2 C4.4408921e-14,0.8954305 0.8954305,0 2,0 L3,0 C3.55228475,0 4,0.44771525 4,1 C4,1.55228475 3.55228475,2 3,2 L2,2 L2,7 C2,9.209139 3.790861,11 6,11 C8.209139,11 10,9.209139 10,7 L10,2 L9,2 C8.44771525,2 8,1.55228475 8,1 C8,0.44771525 8.44771525,0 9,0 L10,0 C11.1045695,0 12,0.8954305 12,2 L12,7 C11.9994732,9.92741091 9.88646614,12.4270982 7,12.915 L7,13.5 C7,15.9852814 9.01471863,18 11.5,18 C13.9852814,18 16,15.9852814 16,13.5 L16,11.825 C14.6276333,11.3345465 13.8062667,9.92874899 14.0528521,8.49238878 C14.2994376,7.05602857 15.5426348,6.00466265 17,6 Z M17,10 C17.5522847,10 18,9.55228475 18,9 C18,8.44771525 17.5522847,8 17,8 C16.4477153,8 16,8.44771525 16,9 C16,9.55228475 16.4477153,10 17,10 Z" transform="translate(2 2)"/>
</svg>
