<svg width="46" height="46" viewBox="0 0 46 46" fill="none" xmlns="http://www.w3.org/2000/svg">
<path d="M36.3333 3H9.66669C5.98478 3 3 5.98478 3 9.66669V36.3333C3 40.0152 5.98478 43 9.66669 43H36.3333C40.0152 43 43 40.0152 43 36.3333V9.66669C43 5.98478 40.0152 3 36.3333 3Z" fill="url(#paint0_linear_2545_78)" fill-opacity="0.2"/>
<rect x="1" y="1" width="44" height="44" rx="6.6" fill="url(#paint1_linear_2545_78)"/>
<rect x="0.5" y="0.5" width="45" height="45" rx="7.1" stroke="white" stroke-opacity="0.4"/>
<path fill-rule="evenodd" clip-rule="evenodd" d="M17.6965 11.035L28.4129 11.035C28.8902 11.035 29.2772 11.4219 29.2772 11.8992L29.2772 17.9488C29.2772 18.4261 28.8902 18.8131 28.4129 18.8131L17.6965 18.8131C17.2192 18.8131 16.8323 18.4261 16.8323 17.9488L16.8323 11.8992C16.8323 11.4219 17.2192 11.035 17.6965 11.035Z" stroke="#133B84" stroke-width="1.5"/>
<path fill-rule="evenodd" clip-rule="evenodd" d="M7.8254 29.7796L18.5418 29.7796C19.0191 29.7796 19.4061 30.1666 19.4061 30.6439L19.4061 34.1008C19.4061 34.5781 19.0191 34.965 18.5418 34.965L7.8254 34.965C7.3481 34.965 6.96117 34.5781 6.96117 34.1008L6.96117 30.6439C6.96117 30.1666 7.3481 29.7796 7.8254 29.7796Z" stroke="#133B84" stroke-width="1.5"/>
<path fill-rule="evenodd" clip-rule="evenodd" d="M27.4563 29.7796L38.1727 29.7796C38.65 29.7796 39.0369 30.1666 39.0369 30.6439L39.0369 34.1008C39.0369 34.5781 38.65 34.965 38.1727 34.965L27.4563 34.965C26.979 34.965 26.592 34.5781 26.592 34.1008L26.592 30.6439C26.592 30.1666 26.979 29.7796 27.4563 29.7796Z" stroke="#133B84" stroke-width="1.5"/>
<path d="M23.123 18.7839V24.1727" stroke="#133B84" stroke-width="1.5"/>
<path d="M32.8938 30.358V25.9011C32.8938 24.9465 32.1199 24.1726 31.1653 24.1726H14.8339C13.8793 24.1726 13.1055 24.9465 13.1055 25.9011V30.358" stroke="#133B84" stroke-width="1.5"/>
<path d="M36.3333 3H9.66669C5.98478 3 3 5.98478 3 9.66669V36.3333C3 40.0152 5.98478 43 9.66669 43H36.3333C40.0152 43 43 40.0152 43 36.3333V9.66669C43 5.98478 40.0152 3 36.3333 3Z" fill="url(#paint2_linear_2545_78)" fill-opacity="0.2"/>
<rect x="1" y="1" width="44" height="44" rx="6.6" fill="url(#paint3_linear_2545_78)"/>
<rect x="0.5" y="0.5" width="45" height="45" rx="7.1" stroke="white" stroke-opacity="0.4"/>
<path fill-rule="evenodd" clip-rule="evenodd" d="M17.6965 11.035L28.4129 11.035C28.8902 11.035 29.2772 11.4219 29.2772 11.8992L29.2772 17.9488C29.2772 18.4261 28.8902 18.8131 28.4129 18.8131L17.6965 18.8131C17.2192 18.8131 16.8323 18.4261 16.8323 17.9488L16.8323 11.8992C16.8323 11.4219 17.2192 11.035 17.6965 11.035Z" stroke="#133B84" stroke-width="1.5"/>
<path fill-rule="evenodd" clip-rule="evenodd" d="M7.8254 29.7796L18.5418 29.7796C19.0191 29.7796 19.4061 30.1666 19.4061 30.6439L19.4061 34.1008C19.4061 34.5781 19.0191 34.965 18.5418 34.965L7.8254 34.965C7.3481 34.965 6.96117 34.5781 6.96117 34.1008L6.96117 30.6439C6.96117 30.1666 7.3481 29.7796 7.8254 29.7796Z" stroke="#133B84" stroke-width="1.5"/>
<path fill-rule="evenodd" clip-rule="evenodd" d="M27.4563 29.7796L38.1727 29.7796C38.65 29.7796 39.0369 30.1666 39.0369 30.6439L39.0369 34.1008C39.0369 34.5781 38.65 34.965 38.1727 34.965L27.4563 34.965C26.979 34.965 26.592 34.5781 26.592 34.1008L26.592 30.6439C26.592 30.1666 26.979 29.7796 27.4563 29.7796Z" stroke="#133B84" stroke-width="1.5"/>
<path d="M23.123 18.7839V24.1727" stroke="#133B84" stroke-width="1.5"/>
<path d="M32.8938 30.358V25.9011C32.8938 24.9465 32.1199 24.1726 31.1653 24.1726H14.8339C13.8793 24.1726 13.1055 24.9465 13.1055 25.9011V30.358" stroke="#133B84" stroke-width="1.5"/>
<path d="M36.3333 3H9.66669C5.98478 3 3 5.98478 3 9.66669V36.3333C3 40.0152 5.98478 43 9.66669 43H36.3333C40.0152 43 43 40.0152 43 36.3333V9.66669C43 5.98478 40.0152 3 36.3333 3Z" fill="url(#paint4_linear_2545_78)" fill-opacity="0.2"/>
<rect x="1" y="1" width="44" height="44" rx="6" fill="url(#paint5_linear_2545_78)"/>
<rect x="0.5" y="0.5" width="45" height="45" rx="6.5" stroke="white" stroke-opacity="0.4"/>
<rect x="13.3047" y="21.6438" width="3.5" height="3.5" rx="1" stroke="#133B84" stroke-width="1.5"/>
<rect x="19.8047" y="21.6438" width="3.5" height="3.5" rx="1" stroke="#133B84" stroke-width="1.5"/>
<rect x="26.3047" y="21.6438" width="3.5" height="3.5" rx="1" stroke="#133B84" stroke-width="1.5"/>
<rect x="13.3047" y="28.1438" width="3.5" height="3.5" rx="1" stroke="#133B84" stroke-width="1.5"/>
<rect x="19.8047" y="28.1438" width="3.5" height="3.5" rx="1" stroke="#133B84" stroke-width="1.5"/>
<path d="M33.7041 17.9757H9.7041M33.7041 21.0758V18.3757C33.7041 16.1355 33.7041 15.0154 33.2681 14.1598C32.8846 13.4071 32.2727 12.7952 31.5201 12.4117C30.6644 11.9757 29.5443 11.9757 27.3041 11.9757H16.1041C13.8639 11.9757 12.7438 11.9757 11.8881 12.4117C11.1355 12.7952 10.5236 13.4071 10.1401 14.1598C9.7041 15.0154 9.7041 16.1355 9.7041 18.3757V29.5757C9.7041 31.816 9.7041 32.9361 10.1401 33.7917C10.5236 34.5444 11.1355 35.1563 11.8881 35.5398C12.7438 35.9757 13.8639 35.9757 16.1041 35.9757H23.3041M27.0374 9.30908V14.6424M16.3708 9.30908V14.6424" stroke="#133B84" stroke-width="1.5" stroke-linecap="round" stroke-linejoin="round"/>
<circle cx="33.7038" cy="32.0997" r="5.84145" stroke="#133B84" stroke-width="1.5"/>
<path d="M33.3594 28.439V32.239L36.051 33.5057" stroke="#133B84" stroke-width="1.5" stroke-linecap="round" stroke-linejoin="round"/>
<defs>
<linearGradient id="paint0_linear_2545_78" x1="43" y1="6.32943" x2="3" y2="39.6706" gradientUnits="userSpaceOnUse">
<stop stop-color="#2F77FB"/>
<stop offset="1" stop-color="#A6C5FF"/>
</linearGradient>
<linearGradient id="paint1_linear_2545_78" x1="6.37769" y1="1" x2="39.6223" y2="45" gradientUnits="userSpaceOnUse">
<stop stop-color="#ECF3FF"/>
<stop offset="1" stop-color="#76A7FF"/>
</linearGradient>
<linearGradient id="paint2_linear_2545_78" x1="43" y1="6.32943" x2="3" y2="39.6706" gradientUnits="userSpaceOnUse">
<stop stop-color="#2F77FB"/>
<stop offset="1" stop-color="#A6C5FF"/>
</linearGradient>
<linearGradient id="paint3_linear_2545_78" x1="6.37769" y1="1" x2="39.6223" y2="45" gradientUnits="userSpaceOnUse">
<stop stop-color="#ECF3FF"/>
<stop offset="1" stop-color="#76A7FF"/>
</linearGradient>
<linearGradient id="paint4_linear_2545_78" x1="43" y1="6.32943" x2="3" y2="39.6706" gradientUnits="userSpaceOnUse">
<stop stop-color="#2F77FB"/>
<stop offset="1" stop-color="#A6C5FF"/>
</linearGradient>
<linearGradient id="paint5_linear_2545_78" x1="6.37769" y1="1" x2="39.6223" y2="45" gradientUnits="userSpaceOnUse">
<stop stop-color="#ECF3FF"/>
<stop offset="1" stop-color="#76A7FF"/>
</linearGradient>
</defs>
</svg>
