<svg xmlns="http://www.w3.org/2000/svg" width="60" height="60" viewBox="0 0 60 60">
  <g fill="none" opacity=".296" transform="rotate(-30 40.928 11.072)">
    <path fill="silver" d="M39.7454839,44 L4.25451613,44 C2.29935484,44 0.709677419,42.3573333 0.709677419,40.337 L0.709677419,7.32966667 C0.709677419,5.30933333 2.29935484,3.66666667 4.25451613,3.66666667 L39.7454839,3.66666667 C41.7006452,3.66666667 43.2903226,5.30933333 43.2903226,7.32966667 L43.2903226,40.337 C43.2903226,42.3573333 41.7006452,44 39.7454839,44 Z M39.7419355,7.32966667 L4.25451613,7.33333333 L4.25806452,40.337 L39.7472581,40.3333333 L39.7419355,7.32966667 Z M41.516129,18.3333333 L2.48387097,18.3333333 C1.50451613,18.3333333 0.709677419,17.512 0.709677419,16.5 C0.709677419,15.488 1.50451613,14.6666667 2.48387097,14.6666667 L41.516129,14.6666667 C42.4972581,14.6666667 43.2903226,15.488 43.2903226,16.5 C43.2903226,17.512 42.4972581,18.3333333 41.516129,18.3333333 Z M32.6451613,11 C31.6640323,11 30.8709677,10.1786667 30.8709677,9.16666667 L30.8709677,1.83333333 C30.8709677,0.821333333 31.6640323,3.55271368e-15 32.6451613,3.55271368e-15 C33.6262903,3.55271368e-15 34.4193548,0.821333333 34.4193548,1.83333333 L34.4193548,9.16666667 C34.4193548,10.1786667 33.6262903,11 32.6451613,11 Z M11.3548387,11 C10.3754839,11 9.58064516,10.1786667 9.58064516,9.16666667 L9.58064516,1.83333333 C9.58064516,0.821333333 10.3754839,3.55271368e-15 11.3548387,3.55271368e-15 C12.3341935,3.55271368e-15 13.1290323,0.821333333 13.1290323,1.83333333 L13.1290323,9.16666667 C13.1290323,10.1786667 12.3341935,11 11.3548387,11 Z"/>
    <rect width="13.2" height="8.8" x="15.4" y="25.209" fill="#FFADD6" rx="2"/>
  </g>
</svg>
